#tb 0: 99561/500000
0,          0,          0,        1,    22500, 0x0f8e562e
0,          1,          1,        1,    22500, 0x507aef06
0,          2,          2,        1,    22500, 0x059d6137
0,          3,          3,        1,    22500, 0xfb1bfd4e
0,          4,          4,        1,    22500, 0xe97a51ba
0,          5,          5,        1,    22500, 0xfc77e68e
0,          6,          6,        1,    22500, 0x7f1985ac
0,          7,          7,        1,    22500, 0xdfb933eb
0,          8,          8,        1,    22500, 0x6dafe534
0,          9,          9,        1,    22500, 0xb7b69abb
0,         10,         10,        1,    22500, 0xc435c086
0,         11,         11,        1,    22500, 0xf8ddb549
0,         12,         12,        1,    22500, 0x76c0d70d
0,         13,         13,        1,    22500, 0x1120bc82
0,         14,         14,        1,    22500, 0x3f7c7970
0,         15,         15,        1,    22500, 0xd37c9aee
0,         16,         16,        1,    22500, 0x7407f81b
0,         17,         17,        1,    22500, 0xce2f1c00
0,         18,         18,        1,    22500, 0x70921eb5
0,         19,         19,        1,    22500, 0x0abc917e
0,         20,         20,        1,    22500, 0xeff1f0fa
0,         21,         21,        1,    22500, 0x5e0d769b
0,         22,         22,        1,    22500, 0xc984cbfd
0,         23,         23,        1,    22500, 0x73f1caa9
0,         24,         24,        1,    22500, 0x9108af6f
0,         25,         25,        1,    22500, 0x4f33484e
0,         26,         26,        1,    22500, 0x9810f8ca
0,         27,         27,        1,    22500, 0xa0b97ca0
0,         28,         28,        1,    22500, 0xd9c28ba3
0,         29,         29,        1,    22500, 0xc97e17e6
0,         30,         30,        1,    22500, 0x85cf86aa
0,         31,         31,        1,    22500, 0xf15ff793
0,         32,         32,        1,    22500, 0x35c54ab5
0,         33,         33,        1,    22500, 0xe80ec129
0,         34,         34,        1,    22500, 0x3d6cff39
0,         35,         35,        1,    22500, 0x54e41aff
0,         36,         36,        1,    22500, 0xc1d63293
0,         37,         37,        1,    22500, 0x362c2dd4
0,         38,         38,        1,    22500, 0xa1f8cdcf
0,         39,         39,        1,    22500, 0x5b59ba62
0,         40,         40,        1,    22500, 0x6d02f5b2
0,         41,         41,        1,    22500, 0x899293ff
0,         42,         42,        1,    22500, 0xad0e9ace
0,         43,         43,        1,    22500, 0x4263f9db
0,         44,         44,        1,    22500, 0xff1e481a
0,         45,         45,        1,    22500, 0x70c86884
0,         46,         46,        1,    22500, 0x203ed712
0,         47,         47,        1,    22500, 0x2f0e8d46
0,         48,         48,        1,    22500, 0x215075a9
0,         49,         49,        1,    22500, 0x9882a978
0,         50,         50,        1,    22500, 0xc2fd5209
0,         51,         51,        1,    22500, 0xe1c925f6
0,         52,         52,        1,    22500, 0x012be5af
0,         53,         53,        1,    22500, 0xa718cbdb
0,         54,         54,        1,    22500, 0x2494a1c3
0,         55,         55,        1,    22500, 0xeb8980e4
0,         56,         56,        1,    22500, 0x7f2766cb
0,         57,         57,        1,    22500, 0xdf3cafa1
0,         58,         58,        1,    22500, 0x9a390f81
0,         59,         59,        1,    22500, 0xfdad5eed
0,         60,         60,        1,    22500, 0x94f58ff3
0,         61,         61,        1,    22500, 0xd7c6d9f2
0,         62,         62,        1,    22500, 0x48b72e7d
0,         63,         63,        1,    22500, 0x8a7a7e37
0,         64,         64,        1,    22500, 0x5413c88a
0,         65,         65,        1,    22500, 0x3f4531b2
0,         66,         66,        1,    22500, 0x152d9396
0,         67,         67,        1,    22500, 0x2ac3f418
0,         68,         68,        1,    22500, 0x0e1c5353
0,         69,         69,        1,    22500, 0xe058b711
0,         70,         70,        1,    22500, 0x262e1a9f
0,         71,         71,        1,    22500, 0x20057d10
0,         72,         72,        1,    22500, 0x65c5ccb5
0,         73,         73,        1,    22500, 0x3e36411a
0,         74,         74,        1,    22500, 0xd9740391
0,         75,         75,        1,    22500, 0x53d1441d
0,         76,         76,        1,    22500, 0x9a3941ad
0,         77,         77,        1,    22500, 0x61553437
0,         78,         78,        1,    22500, 0xfe0c0468
0,         79,         79,        1,    22500, 0xd57bde4b
0,         80,         80,        1,    22500, 0x4a183a4c
0,         81,         81,        1,    22500, 0xd618b978
0,         82,         82,        1,    22500, 0x6b480112
0,         83,         83,        1,    22500, 0x7a1732e9
0,         84,         84,        1,    22500, 0x45836afc
0,         85,         85,        1,    22500, 0x3548d4e0
0,         86,         86,        1,    22500, 0x476c821a
0,         87,         87,        1,    22500, 0x6be5f249
0,         88,         88,        1,    22500, 0xf79b6d52
0,         89,         89,        1,    22500, 0x2edeb0f3
0,         90,         90,        1,    22500, 0xbaf808bf
0,         91,         91,        1,    22500, 0x71013790
0,         92,         92,        1,    22500, 0xbf4e3085
0,         93,         93,        1,    22500, 0x15c2b4de
0,         94,         94,        1,    22500, 0x031d17fa
0,         95,         95,        1,    22500, 0x3a2c193b
0,         96,         96,        1,    22500, 0xb0420aa4
0,         97,         97,        1,    22500, 0xe448fe50
0,         98,         98,        1,    22500, 0x02173090
0,         99,         99,        1,    22500, 0x4b2f76a1
0,        100,        100,        1,    22500, 0xd6458c46
0,        101,        101,        1,    22500, 0xa698fc27
0,        102,        102,        1,    22500, 0xaeca6b5d
0,        103,        103,        1,    22500, 0x4a591972
0,        104,        104,        1,    22500, 0x19e49ba7
0,        105,        105,        1,    22500, 0x1d4ffb92
0,        106,        106,        1,    22500, 0xb1f8e0f8
0,        107,        107,        1,    22500, 0x32c82e8b
0,        108,        108,        1,    22500, 0x96e930c8
0,        109,        109,        1,    22500, 0x0e6ebd2c
0,        110,        110,        1,    22500, 0x315bc5ba
0,        111,        111,        1,    22500, 0xb22321ee
0,        112,        112,        1,    22500, 0xbe464d78
0,        113,        113,        1,    22500, 0xdb4b5edb
0,        114,        114,        1,    22500, 0x0ff65d4c
0,        115,        115,        1,    22500, 0xff68561a
0,        116,        116,        1,    22500, 0xa0033400
0,        117,        117,        1,    22500, 0x5414546d
0,        118,        118,        1,    22500, 0x7e43209e
0,        119,        119,        1,    22500, 0x0037abfd
0,        120,        120,        1,    22500, 0x3dd31b3f
0,        121,        121,        1,    22500, 0xe0777299
0,        122,        122,        1,    22500, 0x35a2a83c
0,        123,        123,        1,    22500, 0x5282c8c4
0,        124,        124,        1,    22500, 0x1ccdd593
0,        125,        125,        1,    22500, 0x92525e5e
0,        126,        126,        1,    22500, 0x5fa3ff5f
0,        127,        127,        1,    22500, 0xd1169436
0,        128,        128,        1,    22500, 0x07dc8179
0,        129,        129,        1,    22500, 0x9a83113d
0,        130,        130,        1,    22500, 0x9c722c1e
0,        131,        131,        1,    22500, 0xccbcfe59
0,        132,        132,        1,    22500, 0x8606a0a1
0,        133,        133,        1,    22500, 0x2210a26f
0,        134,        134,        1,    22500, 0xfc73ba7b
0,        135,        135,        1,    22500, 0x731fd01a
0,        136,        136,        1,    22500, 0x0e21f1dd
0,        137,        137,        1,    22500, 0xf9c4f807
0,        138,        138,        1,    22500, 0x2123fc24
0,        139,        139,        1,    22500, 0xd42cfa83
0,        140,        140,        1,    22500, 0x5927fb7c
0,        141,        141,        1,    22500, 0xe32e02d8
0,        142,        142,        1,    22500, 0xa5c11316
0,        143,        143,        1,    22500, 0xb9112315
0,        144,        144,        1,    22500, 0x78f223d5
0,        145,        145,        1,    22500, 0x93202de3
0,        146,        146,        1,    22500, 0x7eb03464
0,        147,        147,        1,    22500, 0x899c3f68
0,        148,        148,        1,    22500, 0xc2169075
0,        149,        149,        1,    22500, 0x419f33a6
0,        150,        150,        1,    22500, 0x3de50588
0,        151,        151,        1,    22500, 0x3de50588
